<svg width="480" height="480" viewBox="0 0 480 480" fill="none" xmlns="http://www.w3.org/2000/svg">
<path d="M366.5 177.5V332.5C366.5 354.576 348.576 372.5 326.5 372.5H171.5C149.424 372.5 131.5 354.576 131.5 332.5V177.5C131.5 155.424 149.424 137.5 171.5 137.5H326.5C348.576 137.5 366.5 155.424 366.5 177.5Z" fill="#EDF3F5"/>
<path d="M252.794 310.313V278.587M239.575 291.806L252.794 278.587L266.013 291.806H239.575Z" stroke="#252A34" stroke-width="2.4" stroke-linecap="round" stroke-linejoin="round"/>
<path d="M234.96 226.057C230.681 227.091 226.776 229.258 223.641 232.349C220.517 235.44 218.284 239.312 217.184 243.569C216.095 247.826 216.172 252.303 217.426 256.516C218.68 260.729 221.056 264.524 224.301 267.494C227.546 270.453 231.539 272.488 235.84 273.368L269.775 273.841H273.405C275.88 273.852 278.322 273.269 280.522 272.158C282.733 271.047 284.647 269.43 286.11 267.439C287.584 265.448 288.552 263.149 288.97 260.707C289.377 258.276 289.212 255.779 288.475 253.414C287.738 251.049 286.462 248.904 284.735 247.122C283.019 245.351 280.907 244.009 278.575 243.206C276.232 242.392 273.735 242.15 271.293 242.48C268.84 242.821 266.508 243.734 264.473 245.131C263.659 240.808 261.69 236.793 258.775 233.515C255.849 230.226 252.098 227.795 247.896 226.486C243.705 225.166 239.228 225.023 234.96 226.057Z" fill="white"/>
<path d="M234.961 226.054C230.685 227.09 226.775 229.264 223.646 232.349C220.515 235.438 218.285 239.314 217.189 243.572C216.094 247.83 216.174 252.303 217.429 256.518C218.684 260.735 221.06 264.524 224.304 267.493C227.544 270.457 231.536 272.486 235.845 273.363L269.775 273.843H273.409C275.88 273.848 278.318 273.272 280.525 272.159C282.73 271.047 284.646 269.431 286.111 267.441C287.581 265.452 288.555 263.149 288.968 260.713C289.376 258.272 289.209 255.776 288.474 253.412C287.739 251.053 286.463 248.901 284.739 247.125C283.021 245.351 280.908 244.007 278.571 243.203C276.233 242.395 273.739 242.15 271.291 242.486C268.845 242.824 266.508 243.732 264.476 245.137C263.663 240.814 261.691 236.796 258.774 233.513C255.852 230.226 252.097 227.794 247.898 226.484C243.705 225.168 239.231 225.023 234.961 226.054Z" stroke="#252A34" stroke-width="2.2" stroke-linecap="round" stroke-linejoin="round"/>
<path d="M82.2688 170.292L179.041 198.041C184.88 199.715 188.258 205.806 186.583 211.647L157.488 313.114C155.813 318.953 149.72 322.33 143.882 320.656L47.1096 292.907C41.269 291.232 37.8936 285.14 39.5678 279.301L68.663 177.834C70.3377 171.993 76.4282 168.617 82.2688 170.292Z" fill="#E0F2FF"/>
<path d="M162.55 290.153L155.887 316.67L149.675 320.904L41.3234 290.575L39.0002 280.886L46.0382 256.744L162.55 290.153Z" fill="#9DF3B3"/>
<path d="M145.444 235.073C137.114 224.868 94.4893 272.35 94.4893 272.35L163.606 290.762L166.11 282.27C166.11 282.27 155.916 247.902 145.444 235.073Z" fill="#0ADAA3"/>
<path d="M162.958 289.863L140.849 283.523L143.506 234.351L148.312 235.729L165.99 279.289L162.958 289.863Z" fill="black" fill-opacity="0.2"/>
<path d="M106.669 244.856C98.3397 234.651 68.9637 264.132 68.9637 264.132L124.086 279.803C124.086 279.803 117.141 257.686 106.669 244.856Z" fill="#0ADAA3"/>
<path d="M117.187 277.862L93.4719 270.979L101.957 243.043L106.25 244.557L125.469 279.113L117.187 277.862Z" fill="black" fill-opacity="0.2"/>
<path d="M69.993 264.192L95.9022 244.574C97.0049 243.739 98.2625 243.257 99.5426 243.11C100.523 242.998 101.517 243.081 102.463 243.353C103.959 243.781 105.325 244.675 106.338 246.012L106.337 246.009C106.555 246.299 106.746 246.591 106.91 246.891L106.915 246.901L110.881 254.056C111.021 254.308 111.266 254.49 111.548 254.551C111.831 254.611 112.128 254.544 112.36 254.369L137.057 235.668C139.005 234.194 141.431 233.824 143.611 234.448C145.109 234.877 146.477 235.775 147.491 237.112L147.493 237.113C147.921 237.675 148.264 238.293 148.512 238.951L148.513 238.953L157.442 262.374C157.639 262.89 158.216 263.149 158.732 262.952C159.249 262.755 159.508 262.178 159.311 261.661L150.38 238.24L150.382 238.243C150.064 237.405 149.629 236.616 149.084 235.903L149.086 235.903C147.805 234.212 146.058 233.069 144.163 232.525C141.406 231.733 138.314 232.207 135.85 234.074L112.072 252.079L108.664 245.932L107.791 246.416L108.67 245.94C108.452 245.534 108.2 245.158 107.935 244.805L107.933 244.804C106.653 243.114 104.908 241.973 103.014 241.43C100.256 240.637 97.1591 241.112 94.695 242.979L68.7857 262.597C68.3448 262.931 68.2587 263.557 68.5921 263.998C68.9255 264.439 69.552 264.525 69.993 264.192Z" fill="#252A34"/>
<path d="M46.8564 258.875L162.17 292.055C162.7 292.207 163.255 291.9 163.407 291.369C163.559 290.838 163.252 290.284 162.721 290.132L68.9992 263.166L47.4076 256.952C46.877 256.8 46.3229 257.107 46.1707 257.638C46.0186 258.168 46.3257 258.722 46.8564 258.875Z" fill="#252A34"/>
<path d="M95.274 196.111C100.884 197.72 104.123 203.563 102.514 209.173C100.906 214.783 95.0624 218.021 89.4525 216.413C83.8445 214.805 80.6037 208.961 82.2123 203.351C83.821 197.741 89.666 194.503 95.274 196.111Z" fill="#F3F94B"/>
<path d="M95.274 196.111L94.9983 197.072C97.5399 197.801 99.5397 199.483 100.727 201.626C101.915 203.768 102.282 206.355 101.553 208.897C100.824 211.439 99.1418 213.438 96.9994 214.626C94.8571 215.813 92.2697 216.18 89.7282 215.452C87.1866 214.723 85.1868 213.04 83.9993 210.898C82.8118 208.756 82.4448 206.168 83.1736 203.627C83.9024 201.085 85.5848 199.086 87.7271 197.898C89.8694 196.711 92.4568 196.343 94.9983 197.072L95.274 196.111L95.5496 195.15C89.4091 193.389 83.0118 196.935 81.2511 203.076C79.4903 209.216 83.0363 215.613 89.1769 217.374C95.3174 219.135 101.715 215.589 103.475 209.448C105.236 203.308 101.69 196.911 95.5496 195.15L95.274 196.111Z" fill="#252A34"/>
<path d="M82.2688 170.292L81.9932 171.253L178.765 199.002C181.422 199.764 183.512 201.524 184.756 203.766C185.999 206.007 186.384 208.213 185.622 210.87L156.526 312.339C155.764 314.996 154.004 317.587 151.763 318.829C149.519 320.071 146.814 320.456 144.157 319.695L47.3853 291.946C44.7284 291.184 42.6367 289.423 41.3943 287.182C40.1519 284.94 39.7672 282.233 40.529 279.577L69.6242 178.11C70.3861 175.453 72.1468 173.361 74.3881 172.119C76.6294 170.876 79.3363 170.492 81.9932 171.253L82.2688 170.292L82.5445 169.331C76.1732 167.504 69.5286 171.187 67.7017 177.558L38.6065 279.025C36.7796 285.397 40.4628 292.041 46.834 293.868L143.606 321.617C149.977 323.444 156.621 319.763 158.448 313.391L187.544 211.923C189.371 205.551 185.688 198.907 179.317 197.08L82.5445 169.331L82.2688 170.292Z" fill="#37474F"/>
<path d="M383.766 179.859C384.66 180.336 385.33 181.146 385.629 182.115L401.569 234.255C402.012 235.71 401.861 237.284 401.146 238.626C400.431 239.97 399.213 240.974 397.761 241.418L353.863 254.839C353.143 255.059 352.385 255.134 351.636 255.063C350.886 254.991 350.156 254.772 349.491 254.418C348.827 254.067 348.237 253.584 347.758 253.003C347.278 252.422 346.917 251.753 346.696 251.031L328.057 190.066C327.836 189.344 327.762 188.586 327.832 187.836C327.905 187.086 328.124 186.356 328.477 185.692C328.831 185.027 329.314 184.435 329.896 183.955C330.477 183.476 331.146 183.116 331.868 182.897L366.932 172.177C367.413 172.03 367.919 171.977 368.418 172.027C368.918 172.076 369.405 172.221 369.848 172.456L383.766 179.859Z" fill="#FBFFF2"/>
<path d="M365.686 172.558L369.041 183.531C369.413 184.748 370.253 185.768 371.378 186.366C372.503 186.962 373.816 187.091 375.034 186.719L386.008 183.363C386.523 183.206 386.813 182.661 386.656 182.146C386.498 181.631 385.953 181.341 385.438 181.499L374.464 184.854C373.744 185.074 372.963 184.999 372.294 184.645C371.626 184.29 371.127 183.684 370.906 182.96L367.551 171.988C367.394 171.473 366.848 171.183 366.334 171.341C365.819 171.498 365.529 172.043 365.686 172.558Z" fill="#37474F"/>
<path d="M344.174 202.625L344.459 203.558L376.161 193.866L344.459 203.558L344.174 202.625L343.889 201.693C342.86 202.008 342.279 203.097 342.594 204.128C342.912 205.159 343.998 205.736 345.029 205.423L376.731 195.731C377.76 195.414 378.339 194.327 378.026 193.296C377.708 192.263 376.621 191.688 375.591 192.001L343.889 201.693L344.174 202.625Z" fill="#37474F"/>
<path d="M347.31 212.882L379.011 203.19C380.041 202.875 381.132 203.455 381.446 204.484C381.761 205.514 381.181 206.605 380.152 206.919L348.45 216.611C347.421 216.926 346.33 216.346 346.015 215.317C345.701 214.287 346.281 213.197 347.31 212.882Z" fill="#37474F"/>
<path d="M350.733 224.078L367.516 218.947C368.545 218.632 369.636 219.21 369.951 220.242C370.266 221.273 369.686 222.362 368.656 222.677L351.873 227.808C350.844 228.122 349.754 227.544 349.438 226.513C349.123 225.482 349.704 224.393 350.733 224.078Z" fill="#37474F"/>
<path d="M390.428 200.727L374.027 186.912C374.367 186.884 374.704 186.82 375.034 186.719L385.579 183.495L390.428 200.727Z" fill="#CDD4D1"/>
<path d="M383.766 179.859L383.309 180.718C383.975 181.073 384.474 181.679 384.697 182.402L384.696 182.4L400.637 234.54C401.005 235.749 400.877 237.052 400.285 238.165L400.286 238.167C399.693 239.282 398.68 240.118 397.475 240.486L353.578 253.907C352.981 254.089 352.35 254.152 351.729 254.093C351.107 254.034 350.503 253.852 349.95 253.558L349.948 253.557C349.395 253.265 348.909 252.867 348.51 252.383L348.51 252.381C348.111 251.9 347.812 251.347 347.628 250.746L328.989 189.779C328.806 189.18 328.742 188.551 328.802 187.927L328.803 187.929C328.863 187.305 329.045 186.701 329.339 186.148C329.633 185.595 330.032 185.106 330.515 184.708C330.996 184.312 331.551 184.012 332.147 183.83L332.153 183.828L367.217 173.108C367.577 172.998 367.954 172.96 368.322 172.996L368.324 172.996C368.698 173.032 369.06 173.142 369.389 173.316L383.309 180.718L383.766 179.859L384.225 178.997L370.304 171.595L370.307 171.596C369.749 171.3 369.138 171.115 368.51 171.055L368.512 171.056C367.884 170.995 367.249 171.059 366.647 171.243L331.583 181.963L331.585 181.962L331.577 181.965C330.736 182.222 329.951 182.643 329.274 183.203L329.276 183.202C328.595 183.763 328.032 184.454 327.617 185.233C327.203 186.012 326.945 186.864 326.861 187.742L326.862 187.744C326.779 188.621 326.866 189.506 327.124 190.349L345.764 251.316L345.764 251.318C346.024 252.161 346.445 252.945 347.005 253.624L347.005 253.622C347.566 254.303 348.256 254.867 349.035 255.28C349.814 255.694 350.665 255.95 351.545 256.033L351.543 256.034C352.419 256.117 353.305 256.029 354.148 255.772L398.046 242.351C399.746 241.831 401.172 240.653 402.007 239.082C402.844 237.511 403.02 235.673 402.502 233.972L402.502 233.97L386.561 181.83L386.561 181.828C386.187 180.613 385.348 179.597 384.225 178.998L384.225 178.997L383.766 179.859Z" fill="#37474F"/>
</svg>
